<svg width="138" height="78" viewBox="0 0 138 78" fill="none" xmlns="http://www.w3.org/2000/svg">
<path d="M0 71.8398H24.17" stroke="#5C2244" stroke-width="0.5" stroke-miterlimit="10"/>
<path d="M113.621 71.8398H137.791" stroke="#5C2244" stroke-width="0.5" stroke-miterlimit="10"/>
<path d="M25.26 40.7505C26.87 42.4205 27.68 44.4305 27.68 46.7905C27.68 48.7405 27.18 50.4705 26.18 51.9805C25.18 53.4905 23.75 54.6705 21.88 55.5205C20.02 56.3705 17.81 56.7905 15.28 56.7905C14.59 56.7905 13.38 56.7605 11.65 56.7105C9.91999 56.6605 8.17 56.6305 6.41 56.6305C3.58 56.6305 1.45 56.6805 0 56.7805V55.7405C1.25 55.6905 2.15 55.5605 2.71 55.3405C3.27 55.1205 3.66 54.7205 3.87 54.1305C4.08 53.5405 4.18999 52.6005 4.18999 51.3105V25.7005C4.18999 24.4105 4.09 23.4605 3.87 22.8705C3.66 22.2805 3.27 21.8805 2.71 21.6605C2.14 21.4405 1.24 21.3105 0 21.2605V20.2305C1.43 20.3305 3.53 20.3805 6.3 20.3805C7.64 20.3805 9.13 20.3605 10.75 20.3305C12.37 20.3005 13.49 20.2805 14.09 20.2805C16.44 20.2805 18.43 20.6205 20.06 21.3005C21.69 21.9805 22.92 22.9305 23.74 24.1505C24.57 25.3705 24.97 26.7905 24.97 28.4005C24.97 30.3805 24.35 32.1705 23.09 33.7505C21.84 35.3305 19.85 36.5405 17.13 37.3805V37.4805C20.93 37.9905 23.63 39.0705 25.25 40.7505H25.26ZM18.35 35.0905C19.47 33.5605 20.04 31.5205 20.04 28.9605C20.04 26.4005 19.47 24.4405 18.33 23.1705C17.18 21.9005 15.34 21.2605 12.81 21.2605C11.74 21.2605 10.93 21.3805 10.39 21.6305C9.85 21.8705 9.48 22.3005 9.28 22.9305C9.08 23.5505 8.98 24.4805 8.98 25.7105V37.3805H12.46C15.27 37.3805 17.23 36.6205 18.36 35.0905H18.35ZM9.28 54.0705C9.48 54.6605 9.85 55.0605 10.39 55.2805C10.93 55.5005 11.75 55.6105 12.86 55.6105C19.3 55.6105 22.52 52.6005 22.52 46.5605C22.52 43.8505 21.78 41.7905 20.31 40.3805C18.84 38.9705 16.51 38.2605 13.31 38.2605H8.96999V51.3205C8.96999 52.5605 9.07 53.4805 9.27 54.0705H9.28Z" fill="#5C2244"/>
<path d="M66.0413 21.7805C65.4613 22.0705 65.0612 22.5605 64.8512 23.2305C64.6412 23.9005 64.5413 24.9105 64.5413 26.2305V41.7605C64.5413 44.2305 64.3812 46.3505 64.0512 48.1205C63.7212 49.9005 63.1812 51.4205 62.4212 52.7005C61.5512 54.1805 60.2712 55.3505 58.6012 56.2205C56.9312 57.0905 55.0512 57.5205 52.9712 57.5205C49.1912 57.5205 46.3012 56.5905 44.3012 54.7205C43.2712 53.7605 42.4912 52.7505 41.9412 51.6805C41.3912 50.6105 41.0112 49.3205 40.7912 47.8105C40.5712 46.3005 40.4613 44.3305 40.4613 41.9105V25.7005C40.4613 24.4105 40.3612 23.4605 40.1512 22.8705C39.9412 22.2805 39.5512 21.8805 38.9912 21.6605C38.4312 21.4405 37.5213 21.3105 36.2812 21.2605V20.2305C37.7413 20.3305 39.9413 20.3805 42.8913 20.3805C45.6613 20.3805 47.8612 20.3305 49.4712 20.2305V21.2605C48.2212 21.3105 47.3212 21.4505 46.7612 21.6605C46.2012 21.8805 45.8112 22.2805 45.6012 22.8705C45.3912 23.4605 45.2812 24.4005 45.2812 25.7005V42.7905C45.2812 45.5505 45.4712 47.8305 45.8412 49.6505C46.2112 51.4705 46.9912 52.9305 48.1712 54.0405C49.3612 55.1505 51.1113 55.7105 53.4313 55.7105C57.0813 55.7105 59.6413 54.5405 61.1213 52.2005C62.6013 49.8705 63.3413 46.5805 63.3413 42.3405V26.2305C63.3413 24.9505 63.1913 23.9705 62.9013 23.2805C62.6013 22.5905 62.1313 22.1005 61.4613 21.7905C60.7913 21.4905 59.8613 21.3105 58.6513 21.2605V20.2305C59.8913 20.3305 61.6512 20.3805 63.9212 20.3805C65.9912 20.3805 67.5813 20.3305 68.7113 20.2305V21.2605C67.5213 21.3105 66.6312 21.4805 66.0512 21.7805H66.0413Z" fill="#5C2244"/>
<path d="M92.4388 20.3902C97.4988 20.3902 101.099 20.3402 103.229 20.2402C102.999 22.7002 102.879 24.9002 102.879 26.8502C102.879 28.5802 102.929 29.9902 103.029 31.0902H101.839C101.569 28.4202 101.229 26.4402 100.809 25.1502C100.389 23.8602 99.6588 22.9202 98.6288 22.3202C97.5988 21.7202 96.0088 21.4302 93.8788 21.4302H90.6288C89.3788 21.4302 88.4787 21.5302 87.9187 21.7302C87.3587 21.9302 86.9688 22.3202 86.7588 22.9002C86.5488 23.4802 86.4487 24.4202 86.4487 25.7102V38.4202H90.2388C91.9688 38.4202 93.1188 37.9002 93.6888 36.8702C94.2588 35.8402 94.6187 34.7802 94.7487 33.7102C94.8787 32.6402 94.9787 31.9402 95.0287 31.6202H96.2188C96.0988 33.3002 96.0388 34.9202 96.0388 36.4802L96.0587 38.9302C96.0587 40.7502 96.1687 43.1902 96.3887 46.2702H95.1788C95.1488 46.0302 95.0487 45.2002 94.8887 43.7702C94.7287 42.3402 94.2588 41.2702 93.4888 40.5402C92.7088 39.8202 91.6288 39.4602 90.2388 39.4602H86.4487V51.3402C86.4487 52.6402 86.5887 53.5802 86.8587 54.1602C87.1287 54.7502 87.6088 55.1502 88.3188 55.3702C89.0288 55.5902 90.1387 55.7202 91.6687 55.7702V56.8102C89.8887 56.7102 87.3588 56.6602 84.0788 56.6602C81.1188 56.6602 78.9188 56.7102 77.4688 56.8102V55.7702C78.7088 55.7202 79.6188 55.5902 80.1788 55.3702C80.7388 55.1502 81.1288 54.7502 81.3388 54.1602C81.5488 53.5702 81.6488 52.6302 81.6488 51.3402V25.7302C81.6488 24.4402 81.5388 23.4902 81.3388 22.9002C81.1288 22.3102 80.7388 21.9102 80.1788 21.6902C79.6188 21.4702 78.7088 21.3402 77.4688 21.2902V20.2602C80.8488 20.3602 85.8387 20.4102 92.4487 20.4102L92.4388 20.3902Z" fill="#5C2244"/>
<path d="M127.002 20.3902C132.062 20.3902 135.662 20.3402 137.792 20.2402C137.552 22.7002 137.442 24.9002 137.442 26.8502C137.442 28.5802 137.492 29.9902 137.592 31.0902H136.402C136.132 28.4202 135.792 26.4402 135.372 25.1502C134.952 23.8602 134.222 22.9202 133.192 22.3202C132.162 21.7202 130.572 21.4302 128.442 21.4302H125.182C123.942 21.4302 123.042 21.5302 122.472 21.7302C121.912 21.9302 121.522 22.3202 121.312 22.9002C121.102 23.4802 120.992 24.4202 120.992 25.7102V38.4202H124.772C126.502 38.4202 127.652 37.9002 128.222 36.8702C128.792 35.8402 129.152 34.7802 129.282 33.7102C129.412 32.6402 129.512 31.9402 129.562 31.6202H130.742C130.622 33.3002 130.572 34.9202 130.572 36.4802L130.602 38.9302C130.602 40.7502 130.712 43.1902 130.932 46.2702H129.722C129.682 46.0302 129.592 45.2002 129.432 43.7702C129.272 42.3402 128.812 41.2702 128.032 40.5402C127.262 39.8202 126.172 39.4602 124.782 39.4602H121.002V51.3402C121.002 52.6402 121.132 53.5802 121.402 54.1602C121.672 54.7502 122.162 55.1502 122.862 55.3702C123.572 55.5902 124.682 55.7202 126.212 55.7702V56.8102C124.432 56.7102 121.902 56.6602 118.622 56.6602C115.662 56.6602 113.462 56.7102 112.012 56.8102V55.7702C113.262 55.7202 114.162 55.5902 114.722 55.3702C115.282 55.1502 115.672 54.7502 115.882 54.1602C116.092 53.5702 116.202 52.6302 116.202 51.3402V25.7302C116.202 24.4402 116.102 23.4902 115.882 22.9002C115.672 22.3102 115.282 21.9102 114.722 21.6902C114.162 21.4702 113.252 21.3402 112.012 21.2902V20.2602C115.392 20.3602 120.382 20.4102 126.982 20.4102L127.002 20.3902Z" fill="#5C2244"/>
<path d="M58.8006 0.519989V9.28H58.2306V0.519989H55.6406V0H61.4006V0.519989H58.8106H58.8006Z" fill="#5C2244"/>
<path d="M66.5917 4.89999V9.28H66.0117V0H66.5917V4.37999H71.8317V0H72.4117V9.28H71.8317V4.89999H66.5917Z" fill="#5C2244"/>
<path d="M82.7294 0V0.519989H78.1894V4.37H82.7294V4.89999H78.1894V8.75H82.7294V9.28H77.6094V0H82.7294Z" fill="#5C2244"/>
<path d="M33.8288 66.6191C35.6988 66.6191 37.1488 67.0991 38.1788 68.0491C39.3188 69.0891 39.8888 70.3391 39.8888 71.7991C39.8888 73.2591 39.3188 74.5191 38.1788 75.5591C37.1488 76.4991 35.6988 76.9691 33.8288 76.9791H31.7188V66.6291H33.8288V66.6191ZM32.3688 67.2291V76.3691H33.8288C35.4588 76.3691 36.7488 75.9591 37.6988 75.1191C38.7088 74.1991 39.2088 73.0891 39.2088 71.7891C39.2088 70.4891 38.6988 69.3791 37.6988 68.4591C36.7488 67.6391 35.4588 67.2191 33.8288 67.2191H32.3688V67.2291Z" fill="#5C2244"/>
<path d="M49.33 66.6191L53.46 76.9691H52.78L50.96 72.4091H47.03L45.18 76.9691H44.5L48.67 66.6191H49.33ZM50.73 71.8391L49 67.4991L47.26 71.8391H50.73Z" fill="#5C2244"/>
<path d="M60.9178 72.7794L57.0078 66.6094H57.7378L61.2378 72.1294L64.7378 66.6094H65.4678L61.5578 72.7794V76.9694H60.9178V72.7794Z" fill="#5C2244"/>
<path d="M78.1806 71.24C77.3706 71 76.7306 70.66 76.2606 70.24C75.7906 69.81 75.5606 69.29 75.5606 68.68C75.5606 68.07 75.7906 67.58 76.2606 67.15C76.7306 66.72 77.3006 66.5 77.9706 66.5C78.6406 66.5 79.2006 66.72 79.6706 67.15C79.9306 67.38 80.1106 67.63 80.2106 67.92L79.6306 68.12C79.5506 67.91 79.4106 67.72 79.2106 67.54C78.8706 67.23 78.4506 67.07 77.9706 67.07C77.4906 67.07 77.0606 67.23 76.7206 67.54C76.3706 67.85 76.2006 68.23 76.2006 68.68C76.2006 69.13 76.3706 69.51 76.7106 69.82C77.0306 70.11 77.4806 70.37 78.0506 70.61C78.9606 70.88 79.7306 71.3 80.3506 71.86C81.0006 72.45 81.3306 73.17 81.3306 74.02C81.3306 74.87 81.0006 75.59 80.3406 76.19C79.6806 76.79 78.8906 77.09 77.9706 77.09C77.0506 77.09 76.2406 76.79 75.5906 76.18C75.0606 75.7 74.7406 75.14 74.6406 74.51L75.2406 74.31C75.3006 74.87 75.5606 75.36 76.0306 75.78C76.5706 76.27 77.2106 76.51 77.9706 76.51C78.7306 76.51 79.3706 76.27 79.9106 75.78C80.4506 75.29 80.7106 74.7 80.7106 74.01C80.7106 73.32 80.4406 72.74 79.9106 72.25C79.4306 71.82 78.8606 71.48 78.1806 71.22V71.24Z" fill="#5C2244"/>
<path d="M87.4291 73.3791V76.9691H86.7891V66.6191H89.7691C90.6391 66.7291 91.3791 67.0591 91.9791 67.6091C92.6991 68.2691 93.0591 69.0691 93.0591 69.9991C93.0591 70.9291 92.6991 71.7391 91.9791 72.3991C91.2491 73.0591 90.3791 73.3891 89.3591 73.3891H87.4291V73.3791ZM87.4291 67.2091V72.7891H89.3591C90.1991 72.7891 90.9191 72.5191 91.5191 71.9691C92.1191 71.4191 92.4191 70.7691 92.4191 69.9891C92.4191 69.2091 92.1091 68.5591 91.5191 68.0191C90.9191 67.4791 90.1991 67.2091 89.3591 67.2091H87.4291Z" fill="#5C2244"/>
<path d="M101.49 66.6191L105.62 76.9691H104.94L103.12 72.4091H99.1902L97.3402 76.9691H96.6602L100.84 66.6191H101.5H101.49ZM102.89 71.8391L101.16 67.4991L99.4302 71.8391H102.9H102.89Z" fill="#5C2244"/>
<path d="M0.0585938 4.89062H43.5586" stroke="#5C2244" stroke-width="0.5" stroke-miterlimit="10"/>
<path d="M94.3594 4.89062H137.859" stroke="#5C2244" stroke-width="0.5" stroke-miterlimit="10"/>
</svg>
